<svg id="Layer_1" data-name="Layer 1" xmlns="http://www.w3.org/2000/svg" viewBox="0 0 2844.11 680.25"><title>airbit-white</title><path d="M1140.42,517.39h-42.25l-122.79,281h44.3c45.22-106.13,47.21-112.17,98.78-232.52,58.32,134.94,45,104.44,98.82,232.52h45.92l-122.78-281h0Zm322.7,2v279h43.28v-279h-43.28Zm499.09,279-76.14-106.75,4.5-1.22a103.4,103.4,0,0,0,26.69-11.27,81.72,81.72,0,0,0,20.6-17.65,79.61,79.61,0,0,0,13.52-23.92c3.58-9.87,4.9-20.46,4.9-30.91a91,91,0,0,0-7.07-36.44,74.25,74.25,0,0,0-20.13-27.37c-9.44-8-20.58-13.56-32.34-17.32-13.94-4.45-28.67-6.17-43.26-6.17h-124v279h43.28V698.92h67.93L1911,798.44h51.17Zm-50.43-189.05c0,15.16-5.37,28-17.16,37.71-12.71,10.44-28.9,13.86-45,13.86h-76.85V558.22h76.45c15.87,0,32.91,2.79,45.76,12.78,12.23,9.5,16.81,23.21,16.81,38.38h0Zm252.49-90v279H2293a167.71,167.71,0,0,0,42.34-5c11.46-3,22.64-7.58,32.31-14.52A65.24,65.24,0,0,0,2388,755.4c5.16-10.05,7.18-21.05,7.18-32.3a73.13,73.13,0,0,0-3.88-24.73,53.62,53.62,0,0,0-10.9-18.28,69.67,69.67,0,0,0-17-13.44,143.36,143.36,0,0,0-22.4-10.1l-6.88-2.47,6.45-3.44a104.18,104.18,0,0,0,14.7-9.56,58.31,58.31,0,0,0,20.72-29.46,70.26,70.26,0,0,0,3.3-22.29c0-20.86-7.41-38.06-24-50.94-18.8-14.63-43.11-19-66.4-19H2164.27ZM2279.1,640.15h-71.55V557.41h75.16c13.34,0,28.25,2.06,39.2,10.31,9.77,7.36,14.06,17.73,14.06,29.85,0,13.41-4.68,24.91-16.07,32.41-11.94,7.86-26.75,10.19-40.8,10.19h0Zm14.61,120.31h-86.16V675.68h82.56c15,0,33.35,1.86,46,10.79,10.67,7.54,15.78,18.18,15.78,31.19,0,13.37-4.86,24.61-16,32.24-12.14,8.29-27.73,10.55-42.13,10.55h0Zm307.8-241v279h43.28v-279h-43.28Zm471.14,40v-40H2847.49v40H2938v239h44.09v-239h90.54Z" transform="translate(-228.55 -322.96)" fill="#fff" fill-rule="evenodd"/><path d="M734.91,576.14V756.51a24.73,24.73,0,0,1-24.73,24.73H676.59a24.73,24.73,0,0,1-24.73-24.73V630.32a24.73,24.73,0,0,1,24.73-24.73h15.32V576.14a210.18,210.18,0,1,0-420.36,0v29.45h15.32a24.73,24.73,0,0,1,24.73,24.73V756.51a24.73,24.73,0,0,1-24.73,24.73H253.28a24.73,24.73,0,0,1-24.73-24.73V576.14C228.55,436.31,341.9,323,481.73,323S734.91,436.31,734.91,576.14Z" transform="translate(-228.55 -322.96)" fill="#fff"/><rect x="144.23" y="285.79" width="43" height="145.13" fill="#fff"/><rect x="144.23" y="470.61" width="43" height="109.33" fill="#fff"/><rect x="231.69" y="356.49" width="43" height="122.81" fill="#fff"/><rect x="231.69" y="518.84" width="43" height="60.96" fill="#fff"/><rect x="231.69" y="619.46" width="43" height="60.79" fill="#fff"/><rect x="319.14" y="285.79" width="43" height="86.82" fill="#fff"/><rect x="319.14" y="412.31" width="43" height="94.26" fill="#fff"/><rect x="319.14" y="546.26" width="43" height="61.52" fill="#fff"/></svg>