<svg id="Layer_1" data-name="Layer 1" xmlns="http://www.w3.org/2000/svg" viewBox="0 0 506.36 680.25"><title>emblem-white</title><path d="M-714.09,311V461.92a24.73,24.73,0,0,1-24.73,24.73h-33.59a24.73,24.73,0,0,1-24.73-24.73V335.73A24.73,24.73,0,0,1-772.41,311h58.32Z" transform="translate(1220.45 -28.37)" fill="#fff"/><path d="M-1220.45,311V461.92a24.73,24.73,0,0,0,24.73,24.73h33.59a24.73,24.73,0,0,0,24.73-24.73V335.73A24.73,24.73,0,0,0-1162.13,311h-58.32Z" transform="translate(1220.45 -28.37)" fill="#fff"/><path d="M-967.27,28.37c-139.83,0-253.18,113.35-253.18,253.18h43a208.8,208.8,0,0,1,61.56-148.62A208.79,208.79,0,0,1-967.27,71.37a208.8,208.8,0,0,1,148.62,61.56,208.8,208.8,0,0,1,61.56,148.62h43C-714.09,141.72-827.44,28.37-967.27,28.37Z" transform="translate(1220.45 -28.37)" fill="#fff"/><rect x="463.36" y="253.18" width="43" height="177.57" fill="#fff"/><rect y="253.18" width="43" height="177.57" fill="#fff"/><rect x="144.23" y="285.79" width="43" height="145.13" fill="#fff"/><rect x="144.23" y="470.61" width="43" height="109.33" fill="#fff"/><rect x="231.68" y="356.49" width="43" height="122.81" fill="#fff"/><rect x="231.68" y="518.84" width="43" height="60.96" fill="#fff"/><rect x="231.68" y="619.46" width="43" height="60.79" fill="#fff"/><rect x="319.13" y="285.79" width="43" height="86.82" fill="#fff"/><rect x="319.13" y="412.31" width="43" height="94.26" fill="#fff"/><rect x="319.13" y="546.26" width="43" height="61.52" fill="#fff"/></svg>